<?xml version="1.0" encoding="utf-8"?>
<!-- Generator: Adobe Illustrator 27.5.0, SVG Export Plug-In . SVG Version: 6.00 Build 0)  -->
<svg version="1.1" id="Layer_1" xmlns="http://www.w3.org/2000/svg" xmlns:xlink="http://www.w3.org/1999/xlink" x="0px" y="0px"
	 viewBox="0 0 57.01 11.91" style="enable-background:new 0 0 57.01 11.91;" xml:space="preserve">
<style type="text/css">
	.st0{fill:#ffffff;}
</style>
<g transform="translate(-22.920660,218.405281) scale(0.100000,-0.100000)">
	<path fill="#ffffff" class="st0" d="M386.88,2181.11c-2.97-0.45-5.27-1.74-7.73-4.26c-2.86-2.97-4.82-6.95-8.68-17.7
		c-5.04-13.89-7.45-18.09-11.37-20.11c-2.91-1.46-4.26-1.34-8.23,0.67c-3.59,1.74-5.77,3.92-10.59,10.59
		c-3.36,4.59-6.22,6.16-11.09,6.16c-3.92,0-6.22-1.18-8.01-4.03c-2.35-3.75-2.97-8.29-3.47-24.54c-0.39-14.34-1.06-20.28-2.3-21.06
		c-1.12-0.67-0.39-1.34,1.46-1.34c4.03,0,7.79,5.55,9.58,14.12c0.5,2.35,1.06,8.85,1.23,15.13c0.28,7.79,0.62,11.26,1.12,11.76
		c0.56,0.56,1.74-0.39,6.33-5.04c8.68-8.85,13.84-12.49,18.93-13.33c3.31-0.5,8.52,2.07,12.72,6.39c4.15,4.26,7.34,9.58,13,21.85
		c4.59,9.92,6.44,12.88,8.91,14.51c1.96,1.29,4.65,0.5,15.01-4.54c13.78-6.67,32.49-17.76,48.46-28.68
		c42.74-29.24,103.08-51.26,162.51-59.27c22.02-3.03,29.07-3.42,58.48-3.42c33.56,0.06,44.59,0.78,62.18,4.2
		c19.72,3.87,37.93,8.23,51.76,12.44c7.62,2.35,5.94,2.86-4.54,1.51c-18.6-2.46-42.86-4.48-66.83-5.6
		c-18.37-0.84-61.4-0.34-75.07,0.84c-41.79,3.7-71.71,10.25-101.84,22.24c-23.86,9.52-61.29,28.46-81.9,41.4
		c-24.26,15.29-45.43,25.43-58.54,28.18C392.88,2181.33,389.63,2181.56,386.88,2181.11z"/>
	<path class="st0" d="M264.2,2131.76c-10.2-1.57-18.93-7.51-23.36-16.02c-5.1-9.75-5.15-18.32-0.06-28.74
		c2.91-6.05,9.52-12.49,15.91-15.57c6.11-2.91,10.08-3.7,17.98-3.36c5.15,0.22,7.28,0.62,11.48,2.02c5.49,1.85,11.93,4.87,11.93,5.6
		c0,1.18-2.3,1.74-5.04,1.23c-11.93-2.24-23.86-0.73-30.98,3.92c-9.64,6.44-11.15,24.54-2.74,33.22c7.73,8.07,21.23,6.95,27.39-2.24
		c1.01-1.57,2.41-4.93,3.25-7.95c1.62-5.77,3.31-9.69,4.59-10.81c1.12-0.9,1.96,0.22,3.64,5.1c1.01,2.86,1.29,4.93,1.29,9.08
		c0,5.04-0.11,5.55-2.13,9.58c-2.46,5.04-6.11,8.63-11.65,11.37C279.33,2131.42,271.04,2132.82,264.2,2131.76z"/>
</g>
<g>
	<g>
		<path fill="#ffffff" d="M10.56,9.86V7.5h0l1.14,1.62L11.63,9.1l1.13-1.61h0v2.36h-0.16V7.86l0.01,0.08L11.66,9.3h-0.01l-0.97-1.36l0.03-0.07v1.99
			H10.56z"/>
		<path fill="#ffffff" d="M13.3,9.86l0.98-2.41h0.01l0.98,2.41h-0.18L14.24,7.7l0.11-0.06l-0.89,2.22H13.3z M13.77,8.94h1.02l0.05,0.15h-1.11
			L13.77,8.94z"/>
		<path fill="#ffffff" d="M16.95,7.81c-0.07-0.03-0.15-0.06-0.25-0.09s-0.19-0.04-0.29-0.04c-0.15,0-0.27,0.04-0.36,0.11
			c-0.09,0.08-0.14,0.17-0.14,0.29c0,0.09,0.03,0.16,0.08,0.22c0.05,0.06,0.12,0.11,0.2,0.15s0.17,0.08,0.27,0.12
			c0.08,0.03,0.15,0.06,0.23,0.09c0.07,0.04,0.14,0.08,0.2,0.13S17,8.88,17.04,8.96c0.04,0.07,0.05,0.17,0.05,0.27
			c0,0.13-0.03,0.24-0.09,0.34s-0.15,0.17-0.25,0.23c-0.11,0.05-0.23,0.08-0.38,0.08c-0.12,0-0.22-0.01-0.31-0.04
			c-0.09-0.03-0.18-0.06-0.25-0.1c-0.07-0.04-0.13-0.07-0.17-0.1l0.07-0.13c0.05,0.03,0.11,0.07,0.17,0.1
			c0.07,0.04,0.14,0.06,0.22,0.09s0.16,0.04,0.24,0.04c0.09,0,0.18-0.02,0.27-0.06s0.16-0.09,0.22-0.17
			c0.06-0.08,0.09-0.17,0.09-0.29c0-0.11-0.03-0.2-0.08-0.27s-0.12-0.12-0.21-0.17c-0.08-0.04-0.17-0.08-0.27-0.12
			c-0.07-0.03-0.15-0.06-0.22-0.09s-0.14-0.07-0.2-0.11c-0.06-0.04-0.11-0.1-0.14-0.16s-0.05-0.14-0.05-0.23
			c0-0.11,0.03-0.21,0.08-0.29c0.06-0.08,0.13-0.15,0.23-0.19c0.1-0.05,0.21-0.07,0.33-0.07c0.11,0,0.22,0.01,0.33,0.04
			c0.11,0.03,0.21,0.06,0.29,0.11L16.95,7.81z"/>
		<path fill="#ffffff" d="M18.84,7.81c-0.07-0.03-0.15-0.06-0.25-0.09S18.4,7.67,18.3,7.67c-0.15,0-0.27,0.04-0.36,0.11
			c-0.09,0.08-0.14,0.17-0.14,0.29c0,0.09,0.03,0.16,0.08,0.22c0.05,0.06,0.12,0.11,0.2,0.15s0.17,0.08,0.27,0.12
			c0.08,0.03,0.15,0.06,0.23,0.09c0.07,0.04,0.14,0.08,0.2,0.13s0.11,0.11,0.14,0.18c0.04,0.07,0.05,0.17,0.05,0.27
			c0,0.13-0.03,0.24-0.09,0.34s-0.15,0.17-0.25,0.23c-0.11,0.05-0.23,0.08-0.38,0.08c-0.12,0-0.22-0.01-0.31-0.04
			c-0.09-0.03-0.18-0.06-0.25-0.1c-0.07-0.04-0.13-0.07-0.17-0.1l0.07-0.13c0.05,0.03,0.11,0.07,0.17,0.1
			c0.07,0.04,0.14,0.06,0.22,0.09s0.16,0.04,0.24,0.04c0.09,0,0.18-0.02,0.27-0.06s0.16-0.09,0.22-0.17
			c0.06-0.08,0.09-0.17,0.09-0.29c0-0.11-0.03-0.2-0.08-0.27s-0.12-0.12-0.21-0.17c-0.08-0.04-0.17-0.08-0.27-0.12
			c-0.07-0.03-0.15-0.06-0.22-0.09s-0.14-0.07-0.2-0.11c-0.06-0.04-0.11-0.1-0.14-0.16s-0.05-0.14-0.05-0.23
			c0-0.11,0.03-0.21,0.08-0.29c0.06-0.08,0.13-0.15,0.23-0.19c0.1-0.05,0.21-0.07,0.33-0.07c0.11,0,0.22,0.01,0.33,0.04
			c0.11,0.03,0.21,0.06,0.29,0.11L18.84,7.81z"/>
		<path fill="#ffffff" d="M19.37,9.86l0.98-2.41h0.01l0.98,2.41h-0.18L20.31,7.7l0.11-0.06l-0.89,2.22H19.37z M19.84,8.94h1.02l0.05,0.15H19.8
			L19.84,8.94z"/>
		<path fill="#ffffff" d="M22.49,9.03l-0.86-1.49h0.19l0.78,1.35l-0.06,0l0.77-1.36h0.19l-0.86,1.49v0.82h-0.16V9.03z"/>
		<path fill="#ffffff" d="M23.81,9.86l0.98-2.41h0.01l0.98,2.41H25.6L24.75,7.7l0.11-0.06l-0.89,2.22H23.81z M24.29,8.94h1.02l0.05,0.15h-1.11
			L24.29,8.94z"/>
	</g>
</g>
</svg>
